<svg xmlns="http://www.w3.org/2000/svg" width="236.55" height="74.042" viewBox="0 0 236.55 74.042">
    <defs>
        <style>
            .prefix__cls-1{fill:#17a078}
        </style>
    </defs>
    <g id="prefix__logo-simon" transform="translate(-336.297 -285.8)">
        <g id="prefix__Group_20" data-name="Group 20" transform="translate(336.297 285.8)">
            <path id="prefix__Path_48" d="M471.087 445.755c-8.433 0-14.487-7.139-14.487-14.8a14.377 14.377 0 0 1 1.065-5.448c.021-.042.021-.083.042-.125l1.879-3.215.1-.167z" class="prefix__cls-1" data-name="Path 48" transform="translate(-431.487 -393.569)"/>
            <path id="prefix__Path_50" d="M375.9 337.986h-25.262A14.457 14.457 0 0 1 338.26 316.3l17.6-30.5h25.049l-12.629 21.856-3.78 6.554-.1.167-1.879 3.215a.3.3 0 0 0-.042.125 14.3 14.3 0 0 0-1.065 5.448c-.004 7.661 6.028 14.821 14.486 14.821z" class="prefix__cls-1" data-name="Path 50" transform="translate(-336.297 -285.8)"/>
            <path id="prefix__Path_51" d="M383.178 535.8l-12.629 21.856H345.5l12.629-21.856z" data-name="Path 51" transform="translate(-343.579 -483.614)" style="fill:#fec776"/>
            <path id="prefix__Path_52" d="M488.58 390.5l-17.493 30.331c-8.433 0-14.487-7.139-14.487-14.8a14.377 14.377 0 0 1 1.065-5.448c.021-.042.021-.084.042-.125l1.879-3.215.1-.167 3.778-6.555h25.116z" data-name="Path 52" transform="translate(-431.487 -368.644)" style="fill:#118567"/>
        </g>
        <g id="prefix__Group_21" data-name="Group 21" transform="translate(417.854 300.245)">
            <path id="prefix__Path_53" d="M734.7 377.188a9.472 9.472 0 0 1-3.966-.772 6.473 6.473 0 0 1-2.714-2.213 6.173 6.173 0 0 1-1.02-3.528h3.945a3.4 3.4 0 0 0 1.044 2.4 3.663 3.663 0 0 0 2.714.981 3.575 3.575 0 0 0 2.359-.71 2.341 2.341 0 0 0 .877-1.92 2.518 2.518 0 0 0-.772-1.962 6.076 6.076 0 0 0-2.067-1.148l-2.755-.939a9.032 9.032 0 0 1-3.611-2.108 4.691 4.691 0 0 1-1.232-3.423 5.236 5.236 0 0 1 .856-3.11 5.716 5.716 0 0 1 2.442-2.025 8.319 8.319 0 0 1 3.57-.71 8.579 8.579 0 0 1 3.611.731 5.661 5.661 0 0 1 3.423 5.177H737.4a2.783 2.783 0 0 0-.835-1.92 2.928 2.928 0 0 0-2.234-.835 3.234 3.234 0 0 0-2.067.605 2.127 2.127 0 0 0-.835 1.837 2.078 2.078 0 0 0 .647 1.628 5.378 5.378 0 0 0 1.753 1c.731.271 1.586.564 2.547.877a16.149 16.149 0 0 1 2.776 1.232 5.772 5.772 0 0 1 2.025 1.858 5.337 5.337 0 0 1 .752 2.964 5.783 5.783 0 0 1-.814 2.985 5.951 5.951 0 0 1-2.421 2.213 8.775 8.775 0 0 1-3.994.835z" data-name="Path 53" transform="translate(-727 -355.791)"/>
            <path id="prefix__Path_54" d="M814.338 359.3a2.342 2.342 0 0 1-1.67-.605 2.079 2.079 0 0 1-.668-1.545 2.037 2.037 0 0 1 .668-1.545 2.413 2.413 0 0 1 1.67-.605 2.342 2.342 0 0 1 1.67.605 2.005 2.005 0 0 1 .668 1.545 1.937 1.937 0 0 1-.668 1.545 2.255 2.255 0 0 1-1.67.605zm-1.858 16.762v-14.487h3.737v14.487z" data-name="Path 54" transform="translate(-794.257 -355)"/>
            <path id="prefix__Path_55" d="M850.9 399.721v-14.487h3.3l.313 1.962a4.955 4.955 0 0 1 1.858-1.67 5.551 5.551 0 0 1 2.672-.626 4.981 4.981 0 0 1 4.759 2.609 5.618 5.618 0 0 1 2.108-1.9 6.213 6.213 0 0 1 2.9-.71 5.571 5.571 0 0 1 4.363 1.691 7.149 7.149 0 0 1 1.524 4.968v8.183h-3.737v-7.828a4.823 4.823 0 0 0-.71-2.86 2.534 2.534 0 0 0-2.213-1 3.016 3.016 0 0 0-2.442 1.106 4.741 4.741 0 0 0-.918 3.089v7.473h-3.737v-7.828a4.818 4.818 0 0 0-.731-2.86 2.588 2.588 0 0 0-2.254-1 3.032 3.032 0 0 0-2.421 1.106 4.741 4.741 0 0 0-.919 3.089v7.472H850.9z" data-name="Path 55" transform="translate(-825.037 -378.659)"/>
            <path id="prefix__Path_56" d="M987.31 399.9a7.372 7.372 0 0 1-3.778-.96 7.082 7.082 0 0 1-2.651-2.672 7.925 7.925 0 0 1-.981-3.966 7.724 7.724 0 0 1 1-3.966 7.138 7.138 0 0 1 2.672-2.672 7.872 7.872 0 0 1 7.536 0 7.083 7.083 0 0 1 2.651 2.672 8.506 8.506 0 0 1 0 7.932 6.991 6.991 0 0 1-2.672 2.672 7.427 7.427 0 0 1-3.777.96zm0-3.236a3.542 3.542 0 0 0 2.547-1.085 5.427 5.427 0 0 0 0-6.513 3.437 3.437 0 0 0-2.505-1.085 3.472 3.472 0 0 0-2.547 1.085 5.512 5.512 0 0 0 0 6.513 3.338 3.338 0 0 0 2.505 1.082z" data-name="Path 56" transform="translate(-927.108 -378.5)"/>
            <path id="prefix__Path_57" d="M1067 399.721v-14.487h3.3l.292 2.463a4.948 4.948 0 0 1 1.941-2.046 5.789 5.789 0 0 1 3.006-.751 5.247 5.247 0 0 1 4.175 1.691 7.247 7.247 0 0 1 1.482 4.968v8.183h-3.737v-7.828a4.669 4.669 0 0 0-.751-2.86 2.765 2.765 0 0 0-2.359-1 3.376 3.376 0 0 0-2.589 1.106 4.437 4.437 0 0 0-1 3.089v7.473z" data-name="Path 57" transform="translate(-996.027 -378.659)"/>
            <path id="prefix__Path_58" d="M734.7 517.188a9.471 9.471 0 0 1-3.966-.772 6.473 6.473 0 0 1-2.714-2.213 6.174 6.174 0 0 1-1.02-3.528h3.945a3.4 3.4 0 0 0 1.044 2.4 3.662 3.662 0 0 0 2.714.981 3.575 3.575 0 0 0 2.359-.71 2.341 2.341 0 0 0 .877-1.92 2.518 2.518 0 0 0-.772-1.962 6.075 6.075 0 0 0-2.067-1.148l-2.755-.939a9.032 9.032 0 0 1-3.611-2.108 4.691 4.691 0 0 1-1.232-3.423 5.236 5.236 0 0 1 .856-3.11 5.715 5.715 0 0 1 2.442-2.025 8.319 8.319 0 0 1 3.57-.71 8.58 8.58 0 0 1 3.611.731 5.661 5.661 0 0 1 3.423 5.177H737.4a2.783 2.783 0 0 0-.835-1.92 2.928 2.928 0 0 0-2.234-.835 3.235 3.235 0 0 0-2.067.605 2.127 2.127 0 0 0-.835 1.837 2.079 2.079 0 0 0 .647 1.628 5.38 5.38 0 0 0 1.753 1c.731.271 1.586.564 2.547.877a16.144 16.144 0 0 1 2.776 1.232 5.772 5.772 0 0 1 2.025 1.858 5.337 5.337 0 0 1 .752 2.964 5.783 5.783 0 0 1-.814 2.985 5.95 5.95 0 0 1-2.421 2.213 8.775 8.775 0 0 1-3.994.835z" data-name="Path 58" transform="translate(-727 -466.567)"/>
            <path id="prefix__Path_59" d="M818.877 539.9a7.811 7.811 0 0 1-3.924-.96 7.044 7.044 0 0 1-2.672-2.693 8.423 8.423 0 0 1 0-7.891 7.045 7.045 0 0 1 2.672-2.693 7.756 7.756 0 0 1 3.924-.96 7.514 7.514 0 0 1 4.676 1.44 6.444 6.444 0 0 1 2.421 3.987h-3.945a2.853 2.853 0 0 0-1.148-1.649 3.6 3.6 0 0 0-4.655.564 5.365 5.365 0 0 0 0 6.471 3.5 3.5 0 0 0 2.63 1.169 3.451 3.451 0 0 0 2.025-.585 2.749 2.749 0 0 0 1.148-1.67h3.945a6.742 6.742 0 0 1-2.421 3.945 7.082 7.082 0 0 1-4.676 1.525z" data-name="Path 59" transform="translate(-793.703 -489.276)"/>
            <path id="prefix__Path_60" d="M897.6 516.141V495.1h3.737v8.767a5.2 5.2 0 0 1 1.983-1.879 5.8 5.8 0 0 1 2.86-.689 5.277 5.277 0 0 1 4.175 1.691 7.356 7.356 0 0 1 1.482 4.968v8.183h-3.716v-7.828a4.668 4.668 0 0 0-.751-2.86 2.739 2.739 0 0 0-2.359-1 3.453 3.453 0 0 0-2.609 1.106 4.356 4.356 0 0 0-1.044 3.089v7.473H897.6z" data-name="Path 60" transform="translate(-861.988 -465.855)"/>
            <path id="prefix__Path_61" d="M986.027 539.817a6.858 6.858 0 0 1-3.069-.605 4.14 4.14 0 0 1-1.774-1.586 4.206 4.206 0 0 1-.585-2.192 3.977 3.977 0 0 1 1.586-3.277 7.511 7.511 0 0 1 4.738-1.253h3.677v-.355a2.669 2.669 0 0 0-.856-2.192 3.255 3.255 0 0 0-2.108-.71 3.666 3.666 0 0 0-1.983.543 2.289 2.289 0 0 0-1.044 1.586h-3.653a5.321 5.321 0 0 1 1.065-2.755 5.906 5.906 0 0 1 2.38-1.8 8.265 8.265 0 0 1 3.277-.626 7.25 7.25 0 0 1 4.885 1.545 5.459 5.459 0 0 1 1.774 4.384v8.913h-3.194l-.355-2.338a5.446 5.446 0 0 1-1.8 1.921 5.019 5.019 0 0 1-2.961.797zm.856-2.922a3.168 3.168 0 0 0 2.505-1.044 5.312 5.312 0 0 0 1.127-2.609h-3.194a3.3 3.3 0 0 0-2.129.543 1.659 1.659 0 0 0-.647 1.336 1.515 1.515 0 0 0 .647 1.315 2.754 2.754 0 0 0 1.691.464z" data-name="Path 61" transform="translate(-927.662 -489.197)"/>
            <path id="prefix__Path_62" d="M1063.5 539.642v-14.487h3.3l.313 1.962a5.186 5.186 0 0 1 1.858-1.691 5.55 5.55 0 0 1 2.672-.626 4.98 4.98 0 0 1 4.759 2.609 5.617 5.617 0 0 1 2.108-1.9 6.212 6.212 0 0 1 2.9-.71 5.571 5.571 0 0 1 4.363 1.691 7.15 7.15 0 0 1 1.524 4.968v8.183h-3.736v-7.828a4.824 4.824 0 0 0-.71-2.86 2.534 2.534 0 0 0-2.213-1 3.016 3.016 0 0 0-2.442 1.106 4.741 4.741 0 0 0-.918 3.089v7.473h-3.737v-7.828a4.818 4.818 0 0 0-.731-2.86 2.588 2.588 0 0 0-2.254-1 3.032 3.032 0 0 0-2.421 1.106 4.74 4.74 0 0 0-.918 3.089v7.472h-3.717z" data-name="Path 62" transform="translate(-993.257 -489.355)"/>
            <path id="prefix__Path_63" d="M1195.438 499.3a2.342 2.342 0 0 1-1.67-.605 2.079 2.079 0 0 1-.668-1.545 2.037 2.037 0 0 1 .668-1.545 2.413 2.413 0 0 1 1.67-.605 2.342 2.342 0 0 1 1.67.605 2.005 2.005 0 0 1 .668 1.545 1.938 1.938 0 0 1-.668 1.545 2.255 2.255 0 0 1-1.67.605zm-1.879 16.762v-14.487h3.736v14.487z" data-name="Path 63" transform="translate(-1095.804 -465.776)"/>
            <path id="prefix__Path_64" d="M1232 539.721v-14.487h3.3l.292 2.463a4.946 4.946 0 0 1 1.941-2.046 5.789 5.789 0 0 1 3.006-.751 5.247 5.247 0 0 1 4.175 1.691 7.248 7.248 0 0 1 1.482 4.968v8.183h-3.736v-7.828a4.668 4.668 0 0 0-.752-2.86 2.765 2.765 0 0 0-2.359-1 3.376 3.376 0 0 0-2.589 1.106 4.438 4.438 0 0 0-1 3.089v7.473H1232z" data-name="Path 64" transform="translate(-1126.584 -489.434)"/>
            <path id="prefix__Path_65" d="M1322.494 539.818a7.861 7.861 0 0 1-3.883-.939 6.694 6.694 0 0 1-2.651-2.63 7.756 7.756 0 0 1-.96-3.924 8.355 8.355 0 0 1 .939-4.008 6.774 6.774 0 0 1 2.63-2.735 7.815 7.815 0 0 1 3.966-.981 7.516 7.516 0 0 1 3.778.939 6.687 6.687 0 0 1 2.547 2.568 7.258 7.258 0 0 1 .918 3.611c0 .209 0 .438-.021.668 0 .23-.021.48-.042.731h-11.022a3.762 3.762 0 0 0 1.19 2.651 3.684 3.684 0 0 0 2.588.96 3.346 3.346 0 0 0 1.92-.522 3.088 3.088 0 0 0 1.148-1.336h3.8a6.98 6.98 0 0 1-1.357 2.5 6.822 6.822 0 0 1-2.338 1.774 7.051 7.051 0 0 1-3.15.673zm.021-12.149a3.9 3.9 0 0 0-2.421.772 3.519 3.519 0 0 0-1.336 2.359h7.223a3.205 3.205 0 0 0-1.044-2.275 3.612 3.612 0 0 0-2.422-.856z" data-name="Path 65" transform="translate(-1192.258 -489.197)"/>
            <path id="prefix__Path_66" d="M1406.194 539.818a7.861 7.861 0 0 1-3.883-.939 6.7 6.7 0 0 1-2.651-2.63 7.758 7.758 0 0 1-.96-3.924 8.355 8.355 0 0 1 .939-4.008 6.774 6.774 0 0 1 2.63-2.735 7.815 7.815 0 0 1 3.966-.981 7.516 7.516 0 0 1 3.778.939 6.687 6.687 0 0 1 2.547 2.568 7.258 7.258 0 0 1 .918 3.611c0 .209 0 .438-.021.668 0 .23-.021.48-.042.731h-11.022a3.762 3.762 0 0 0 1.19 2.651 3.684 3.684 0 0 0 2.588.96 3.346 3.346 0 0 0 1.92-.522 3.088 3.088 0 0 0 1.148-1.336h3.8a6.977 6.977 0 0 1-1.357 2.5 6.819 6.819 0 0 1-2.338 1.774 7.051 7.051 0 0 1-3.15.673zm.021-12.149a3.9 3.9 0 0 0-2.421.772 3.519 3.519 0 0 0-1.336 2.359h7.223a3.206 3.206 0 0 0-1.044-2.275 3.612 3.612 0 0 0-2.422-.856z" data-name="Path 66" transform="translate(-1258.486 -489.197)"/>
        </g>
    </g>
</svg>
